<?xml version="1.0" encoding="UTF-8" standalone="no"?>
<!-- Created with Inkscape (http://www.inkscape.org/) -->

<svg
   xmlns:dc="http://purl.org/dc/elements/1.1/"
   xmlns:cc="http://creativecommons.org/ns#"
   xmlns:rdf="http://www.w3.org/1999/02/22-rdf-syntax-ns#"
   xmlns:svg="http://www.w3.org/2000/svg"
   xmlns="http://www.w3.org/2000/svg"
   xmlns:sodipodi="http://sodipodi.sourceforge.net/DTD/sodipodi-0.dtd"
   xmlns:inkscape="http://www.inkscape.org/namespaces/inkscape"
   version="1.1"
   id="svg2"
   xml:space="preserve"
   width="24"
   height="24"
   viewBox="0 0 24 24"
   sodipodi:docname="linkedin.svg"
   inkscape:version="0.92.1 r"><metadata
     id="metadata8"><rdf:RDF><cc:Work
         rdf:about=""><dc:format>image/svg+xml</dc:format><dc:type
           rdf:resource="http://purl.org/dc/dcmitype/StillImage" /><dc:title></dc:title></cc:Work></rdf:RDF></metadata><defs
     id="defs6" /><sodipodi:namedview
     pagecolor="#ffffff"
     bordercolor="#666666"
     borderopacity="1"
     objecttolerance="10"
     gridtolerance="10"
     guidetolerance="10"
     inkscape:pageopacity="0"
     inkscape:pageshadow="2"
     inkscape:window-width="1920"
     inkscape:window-height="1025"
     id="namedview4"
     showgrid="false"
     fit-margin-top="0"
     fit-margin-left="0"
     fit-margin-right="0"
     fit-margin-bottom="0"
     inkscape:zoom="13.906433"
     inkscape:cx="7.5587069"
     inkscape:cy="12.906468"
     inkscape:window-x="0"
     inkscape:window-y="27"
     inkscape:window-maximized="1"
     inkscape:current-layer="g10"
     showguides="true"
     inkscape:guide-bbox="true"
     inkscape:snap-page="true"
     inkscape:snap-bbox="true"
     inkscape:snap-bbox-midpoints="true" /><g
     id="g10"
     inkscape:groupmode="layer"
     inkscape:label="ink_ext_XXXXXX"
     transform="matrix(1.3333333,0,0,-1.3333333,0,23.999999)"
     style="opacity:0.54000005"><path
       inkscape:connector-curvature="0"
       id="path18"
       style="opacity:1;fill:#000000;fill-opacity:1;fill-rule:nonzero;stroke:none;stroke-width:0.04166737"
       d="M 14.282509,3.7184246 H 12.05781 v 3.4809501 c 0,0.83025 -0.01433,1.8981248 -1.155955,1.8981248 -1.1577465,0 -1.3343774,-0.9047913 -1.3343774,-1.8385418 V 3.7184246 H 7.3452368 V 10.876624 H 9.4779746 V 9.8981247 h 0.030417 c 0.2967178,0.5626663 1.0226594,1.1560833 2.1050704,1.1560833 2.252658,0 2.669047,-1.4821251 2.669047,-3.4099998 z m -9.44581,8.1362414 c -0.7145404,0 -1.2907305,0.577958 -1.2907305,1.290208 0,0.712042 0.5761901,1.290167 1.2907305,1.290167 0.7117778,0 1.2894139,-0.578125 1.2894139,-1.290167 0,-0.71225 -0.5776361,-1.290208 -1.2894139,-1.290208 z M 5.9495233,3.7184246 H 3.722566 V 10.876624 H 5.9495233 Z M 15.390422,16.499999 H 2.6063205 c -0.6102079,0 -1.1063203,-0.484208 -1.1063203,-1.081541 V 2.5823579 c 0,-0.5973333 0.4961124,-1.0823583 1.1063203,-1.0823583 H 15.390422 c 0.61152,0 1.109578,0.485025 1.109578,1.0823583 V 15.418458 c 0,0.597333 -0.498058,1.081541 -1.109578,1.081541" /></g></svg>